<svg version="1.2" xmlns="http://www.w3.org/2000/svg" viewBox="0 0 67 64" width="67" height="64">
	<title>credicare-svg</title>
	<style>
		.s0 { fill: #192754 } 
		.s1 { fill: #8cbd4a } 
		.s2 { fill: #1e2c59 } 
		.s3 { fill: #bfda91 } 
		.s4 { fill: #6fab45 } 
	</style>
	<path id="Layer" class="s0" d="m16.4 51.8q-4-4.4-6-9.1-1.8-4.6-1.4-10.6 0.7-13.2 10.6-20.3 8.5-6.1 18.8-5.1 12.5 1.1 20.2 12.8 0 0.1 0.1 0.2 0 0 0 0.1 0 0 0 0.1-0.1 0-0.1 0-0.1 0.1-0.3-0.2-6.3-8.8-15.9-10.9-8.6-1.8-16.5 1.6-8.1 3.5-12.7 12-4.1 7.6-2.4 16.3 1.8 9.4 8.8 15.9 0.5 0.5-0.1 0.1-1-0.7-3.1-2.9z"/>
	<path id="Layer" class="s1" d="m48 18.5q-2.5-0.4-3.1 1.8 0 0.1-0.1 0.3 0 0.1-0.1 0.2-0.1 0.1-0.2 0.1 0 0.1-0.1 0.2-1.7 0.7-3.4-0.4l0.1-8.3q0.1-0.1 0.1-0.2 0-0.1 0.1-0.2 0.1 0 0.2-0.1 0.1 0 0.2-0.1 2.4-0.4 5.2 0.7 0.3 0.1 0.5 0.3 0.2 0.1 0.3 0.3 0.1 0.2 0.2 0.5 0.1 0.2 0.1 0.5z"/>
	<path id="Layer" class="s2" d="m33.4 53.7q2.4 2.2 5 0.5 1.6-1 2.9-0.8 0.6 0.1 0.9 0 4.8-1.2 9.2-3.3 0.7-0.4 1.3-0.3 1.4 0.2 0.6 1.4-0.3 0.4-0.9 0.9-8.8 7.2-19.2 6.1-7.9-0.8-13.6-6.2-6-5.7-7.1-14.3-2-14.9 10.6-23.9 0.6-0.5 0.5 0.2-0.1 0.3-0.5 0.5-0.4 0.1-0.5 0.3-7.6 7-7.8 16.7-0.2 5.8 3.8 9.1 0.9 0.8 7.3 3.5 6.5 2.9 11.2 7.6 1.6 1.7-0.6 2.2-0.3 0.1-1-0.1l-1.9-0.5q-0.7-0.1-0.2 0.4z"/>
	<path id="Layer" class="s1" d="m39.2 28q-3.4 1.2-6.9 0.5v-12.2q0-0.1 0-0.2 0.1-0.1 0.2-0.2 0-0.1 0.1-0.1 0.1 0 0.2 0l6.2 0.2q0 0 0.1 0 0.1 0.1 0.2 0.2 0.1 0 0.1 0.1 0 0.1 0 0.3z"/>
	<path id="Layer" class="s1" d="m48 18.5v9.8l-0.8-0.1q-0.2-1.9-2-1.8-1.3 0.1-1.4 0.1-1.3 0-2.5 0.2l-0.3-6q1.7 1.1 3.4 0.4 0.1-0.1 0.1-0.2 0.1 0 0.2-0.1 0.1-0.1 0.1-0.2 0.1-0.2 0.1-0.3 0.6-2.2 3.1-1.8z"/>
	<path id="Layer" class="s1" d="m24.4 32.4q-0.2-0.1-0.4-0.2-0.1-0.2-0.3-0.3-0.1-0.2-0.1-0.4-0.1-0.2-0.1-0.5v-10q0-0.2 0.1-0.4 0.1-0.2 0.2-0.3 0.1-0.1 0.3-0.2 0.2-0.1 0.4-0.1h4.7q0.3 0 0.5 0.1 0.2 0.1 0.4 0.3 0.2 0.2 0.3 0.4 0.1 0.2 0.1 0.5l0.3 12.3q0 0.3-0.1 0.5-0.1 0.3-0.3 0.4-0.2 0.2-0.5 0.2-0.3 0-0.5-0.1z"/>
	<path id="Layer" class="s3" d="m47.3 28.2l-6-0.2q-0.3-0.5 0-1.2 1.2-0.3 2.5-0.3 0.1 0 1.4-0.1 1.8-0.1 2.1 1.8z"/>
	<path id="Layer" class="s4" d="m39.2 28v11q0 1.5-1.2 0.7l-5-3.2q-0.2-0.2-0.3-0.3-0.2-0.2-0.3-0.4-0.1-0.2-0.2-0.5 0-0.2 0-0.4l0.1-6.4q3.5 0.7 6.9-0.5z"/>
	<path id="Layer" class="s4" d="m41.3 28l6 0.2h0.7v15.1q0 0.2-0.1 0.3-0.1 0.2-0.2 0.3-0.2 0.1-0.4 0.2-0.2 0-0.4-0.1l-4.5-2q-0.3-0.2-0.6-0.4-0.2-0.2-0.4-0.4-0.2-0.3-0.2-0.6-0.1-0.3-0.1-0.6z"/>
	<path id="Layer" class="s4" d="m55.3 46q-5.4 5.1-12 2.7-5.3-1.9-12.2-6.7-4.1-2.9-6.1-3.9-2.9-1.4-6.7-2.9-1.6-0.5-0.8-1.7 0.1-0.1 0.2-0.2 0-0.1 0.1-0.1 0.1-0.1 0.3-0.1 0.1-0.1 0.2-0.1 4.2-0.2 8.1 1.6 8.3 3.7 15.9 8.6 2.3 1.4 7.3 2.5 3.6 0.8 7-1.9 0.5-0.3 0.5 0.2 0.1 0.8-0.7 1.3-0.9 0.6-1.1 0.7z"/>
</svg>